<svg width="14" height="14" viewBox="0 0 14 14" fill="none" xmlns="http://www.w3.org/2000/svg">
<path d="M8.5601 7.34794V8.98594C8.5601 10.3539 8.0141 10.8999 6.6461 10.8999H5.0141C3.6521 10.8999 3.1001 10.3539 3.1001 8.98594V7.34794C3.1001 5.98594 3.6461 5.43994 5.0141 5.43994H6.6521C8.0141 5.43994 8.5601 5.98594 8.5601 7.34794Z" stroke="#386668" stroke-width="0.75" stroke-linecap="round" stroke-linejoin="round"/>
<path d="M10.8999 5.0081V6.6461C10.8999 8.0141 10.3539 8.5601 8.98594 8.5601H8.55994V7.3481C8.55994 5.9861 8.01394 5.4401 6.64594 5.4401H5.43994V5.0081C5.43994 3.6401 5.98594 3.1001 7.35394 3.1001H8.99194C10.3539 3.1001 10.8999 3.6461 10.8999 5.0081Z" stroke="#386668" stroke-width="0.75" stroke-linecap="round" stroke-linejoin="round"/>
<path d="M12.9998 8.80005C12.9998 11.122 11.1218 13 8.7998 13L9.4298 11.95" stroke="#386668" stroke-width="0.75" stroke-linecap="round" stroke-linejoin="round"/>
<path d="M1 5.2C1 2.878 2.878 1 5.2 1L4.57 2.05" stroke="#386668" stroke-width="0.75" stroke-linecap="round" stroke-linejoin="round"/>
</svg>
