<svg width="12" height="12" viewBox="0 0 12 12" fill="none" xmlns="http://www.w3.org/2000/svg">
<path d="M9.5 8V3.25C9.5 2.7 9.05 2.25 8.5 2.25H6.25" stroke="#BA1A1A" stroke-width="0.75" stroke-linecap="round" stroke-linejoin="round"/>
<path d="M7.5 1L6 2.25L7.5 3.5" stroke="#BA1A1A" stroke-width="0.75" stroke-linecap="round" stroke-linejoin="round"/>
<path d="M2.5 4.5V8" stroke="#BA1A1A" stroke-width="0.75" stroke-linecap="round" stroke-linejoin="round"/>
<path d="M2.625 4.25C3.52246 4.25 4.25 3.52246 4.25 2.625C4.25 1.72754 3.52246 1 2.625 1C1.72754 1 1 1.72754 1 2.625C1 3.52246 1.72754 4.25 2.625 4.25Z" stroke="#BA1A1A" stroke-width="0.75" stroke-linecap="round" stroke-linejoin="round"/>
<path d="M2.5 11C3.32843 11 4 10.3284 4 9.5C4 8.67157 3.32843 8 2.5 8C1.67157 8 1 8.67157 1 9.5C1 10.3284 1.67157 11 2.5 11Z" stroke="#BA1A1A" stroke-width="0.75" stroke-linecap="round" stroke-linejoin="round"/>
<path d="M9.5 11C10.3284 11 11 10.3284 11 9.5C11 8.67157 10.3284 8 9.5 8C8.67157 8 8 8.67157 8 9.5C8 10.3284 8.67157 11 9.5 11Z" stroke="#BA1A1A" stroke-width="0.75" stroke-linecap="round" stroke-linejoin="round"/>
</svg>
