<svg width="17" height="17" viewBox="0 0 17 17" fill="none" xmlns="http://www.w3.org/2000/svg">
<path d="M8.54464 16.0893C12.7114 16.0893 16.0893 12.7114 16.0893 8.54464C16.0893 4.37785 12.7114 1 8.54464 1C4.37785 1 1 4.37785 1 8.54464C1 12.7114 4.37785 16.0893 8.54464 16.0893Z" stroke="#2C6C1E" stroke-width="0.75" stroke-linecap="round" stroke-linejoin="round"/>
<path d="M8.56745 11.9396C10.4425 11.9396 11.9625 10.4196 11.9625 8.5445C11.9625 6.66945 10.4425 5.14941 8.56745 5.14941C6.6924 5.14941 5.17236 6.66945 5.17236 8.5445C5.17236 10.4196 6.6924 11.9396 8.56745 11.9396Z" stroke="#2C6C1E" stroke-width="0.75" stroke-linecap="round" stroke-linejoin="round"/>
<path d="M3.21045 3.21045L5.88125 5.87371" stroke="#2C6C1E" stroke-width="0.75" stroke-linecap="round" stroke-linejoin="round"/>
<path d="M3.21045 13.8786L5.88125 11.2153" stroke="#2C6C1E" stroke-width="0.75" stroke-linecap="round" stroke-linejoin="round"/>
<path d="M13.8861 13.8786L11.2153 11.2153" stroke="#2C6C1E" stroke-width="0.75" stroke-linecap="round" stroke-linejoin="round"/>
<path d="M13.8861 3.21045L11.2153 5.87371" stroke="#2C6C1E" stroke-width="0.75" stroke-linecap="round" stroke-linejoin="round"/>
</svg>
